<svg xmlns="http://www.w3.org/2000/svg" width="265" height="190" viewBox="0 0 265 190" version="1.1"><path d="M 122.776 7.733 C 125.128 7.945, 128.728 7.942, 130.776 7.727 C 132.824 7.512, 130.900 7.339, 126.500 7.343 C 122.100 7.346, 120.424 7.522, 122.776 7.733 M 110 9 C 108.041 9.627, 107.933 9.797, 109.500 9.782 C 110.600 9.772, 112.850 9.420, 114.500 9 C 117.195 8.314, 117.246 8.235, 115 8.218 C 113.625 8.208, 111.375 8.560, 110 9 M 138.813 8.683 C 139.534 8.972, 140.397 8.936, 140.729 8.604 C 141.061 8.272, 140.471 8.036, 139.417 8.079 C 138.252 8.127, 138.015 8.364, 138.813 8.683 M 101.813 11.683 C 102.534 11.972, 103.397 11.936, 103.729 11.604 C 104.061 11.272, 103.471 11.036, 102.417 11.079 C 101.252 11.127, 101.015 11.364, 101.813 11.683 M 113.500 11.981 C 103.997 13.995, 92.345 18.544, 86.874 22.375 C 84.724 23.882, 84.723 23.897, 86.781 23.742 C 87.925 23.655, 88.601 23.163, 88.282 22.647 C 87.940 22.094, 88.781 21.979, 90.324 22.367 C 92.360 22.877, 92.823 22.702, 92.394 21.585 C 91.989 20.530, 92.396 20.291, 93.921 20.690 C 95.064 20.989, 96 21.686, 96 22.239 C 96 22.891, 96.445 22.876, 97.264 22.196 C 98.568 21.114, 104.903 20.385, 120.500 19.522 C 139.990 18.444, 148.590 17.707, 150.623 16.944 C 151.906 16.462, 153.185 16.585, 153.856 17.256 C 154.467 17.867, 155.299 18.035, 155.704 17.629 C 159.303 14.031, 125.300 9.480, 113.500 11.981 M 95 14 C 94.175 14.533, 93.950 14.969, 94.500 14.969 C 95.050 14.969, 96.175 14.533, 97 14 C 97.825 13.467, 98.050 13.031, 97.500 13.031 C 96.950 13.031, 95.825 13.467, 95 14 M 79.872 22.750 C 78.629 24.336, 78.664 24.371, 80.250 23.128 C 81.916 21.821, 82.445 21, 81.622 21 C 81.415 21, 80.627 21.788, 79.872 22.750 M 45.264 39.718 C 46.784 39.947, 49.034 39.941, 50.264 39.704 C 51.494 39.467, 50.250 39.279, 47.500 39.286 C 44.750 39.294, 43.744 39.488, 45.264 39.718 M 58.269 39.693 C 59.242 39.947, 60.592 39.930, 61.269 39.656 C 61.946 39.382, 61.150 39.175, 59.500 39.195 C 57.850 39.215, 57.296 39.439, 58.269 39.693 M 229 46.378 C 229 46.585, 229.787 47.373, 230.750 48.128 C 232.336 49.371, 232.371 49.336, 231.128 47.750 C 229.821 46.084, 229 45.555, 229 46.378 M 156.500 48.362 C 149.721 50.568, 146.481 52.693, 141.396 58.267 C 133.992 66.382, 132.989 70.236, 132.995 90.540 C 133.002 114.031, 131.223 120.323, 121.614 130.786 L 117.678 135.073 166.589 134.786 C 214.552 134.506, 215.578 134.458, 219.500 132.337 C 226.249 128.688, 231.745 123.220, 234.689 117.224 C 237.486 111.529, 237.500 111.399, 237.500 91.500 C 237.500 72.006, 237.434 71.361, 234.887 66 C 231.564 59.004, 225.996 53.436, 219 50.113 C 213.544 47.521, 213.288 47.498, 187 47.280 C 167.439 47.118, 159.453 47.401, 156.500 48.362 M 236.970 53.944 C 237.543 55.014, 238.505 56.194, 239.109 56.567 C 239.713 56.941, 239.434 56.066, 238.489 54.623 C 236.487 51.568, 235.451 51.105, 236.970 53.944 M 240.564 59.293 C 240.940 60.279, 241.499 60.834, 241.807 60.526 C 242.115 60.219, 241.808 59.412, 241.124 58.733 C 240.136 57.753, 240.022 57.868, 240.564 59.293 M 100 63 C 97.282 65.718, 97.394 70.462, 100.223 72.443 C 103.597 74.807, 109.239 74.439, 111.826 71.686 C 114.648 68.682, 114.573 66.482, 111.545 63.455 C 108.436 60.345, 102.874 60.126, 100 63 M 209 61.689 C 201.137 64.689, 203.027 74, 211.500 74 C 220.556 74, 221.833 63.473, 213 61.636 C 211.625 61.350, 209.825 61.374, 209 61.689 M 30 64.894 C 30 65.434, 31.621 72.766, 33.601 81.188 C 35.582 89.610, 38.205 100.775, 39.430 106 L 41.658 115.500 48.343 115.796 C 53.155 116.009, 55.138 115.729, 55.421 114.796 C 55.637 114.083, 56.855 107.763, 58.126 100.750 C 59.397 93.737, 60.711 88, 61.046 88 C 61.380 88, 62.195 91.037, 62.857 94.750 C 63.518 98.463, 64.766 104.763, 65.630 108.750 L 67.201 116 73.560 116 L 79.920 116 80.965 112.250 C 83.916 101.660, 92 67.804, 92 66.037 C 92 64.182, 91.375 64, 85 64 C 81.150 64, 77.998 64.112, 77.995 64.250 C 77.960 66.188, 73.927 91.407, 73.600 91.733 C 73.353 91.981, 72.860 90.005, 72.505 87.342 C 71.869 82.574, 69.288 69.168, 68.347 65.750 C 67.949 64.304, 66.693 64, 61.108 64 L 54.351 64 51.963 77.500 C 50.650 84.925, 49.318 91, 49.003 91 C 48.689 91, 47.539 85.037, 46.448 77.750 L 44.464 64.500 37.232 64.206 C 32.968 64.033, 30 64.315, 30 64.894 M 151 90.044 L 151 116.088 158.250 115.794 L 165.500 115.500 165.792 107.750 L 166.084 100 179.542 100 L 193 100 193 93.528 L 193 87.056 179.250 86.778 L 165.500 86.500 165.500 81.500 L 165.500 76.500 180.750 76.224 L 196 75.948 196 69.974 L 196 64 173.500 64 L 151 64 151 90.044 M 245.079 70.583 C 245.127 71.748, 245.364 71.985, 245.683 71.188 C 245.972 70.466, 245.936 69.603, 245.604 69.271 C 245.272 68.939, 245.036 69.529, 245.079 70.583 M 245.986 93 C 245.371 116.347, 244.192 120.439, 235.307 130.035 C 228.761 137.106, 229.664 138.073, 236.464 131.273 C 245.610 122.127, 247.255 115.725, 246.813 91 L 246.500 73.500 245.986 93 M 8.400 91.500 C 8.401 99.750, 8.556 102.992, 8.744 98.704 C 8.932 94.417, 8.931 87.667, 8.742 83.704 C 8.552 79.742, 8.399 83.250, 8.400 91.500 M 99 97 L 99 116 105.417 116 L 111.835 116 112.192 98.250 C 112.388 88.487, 112.377 79.938, 112.167 79.250 C 111.914 78.420, 109.637 78, 105.393 78 L 99 78 99 97 M 204.948 78.250 C 204.373 81.043, 203.965 108.278, 204.450 111.513 L 205.123 116 211.561 116 L 218 116 218 97 L 218 78 211.500 78 C 207.925 78, 204.977 78.112, 204.948 78.250 M 21 132.378 C 21 132.585, 21.788 133.373, 22.750 134.128 C 24.336 135.371, 24.371 135.336, 23.128 133.750 C 21.821 132.084, 21 131.555, 21 132.378 M 46 143.647 C 54.291 144.383, 65.004 144.441, 65.002 143.750 C 65.001 143.338, 59.938 143.076, 53.750 143.168 C 47.563 143.261, 44.075 143.476, 46 143.647 M 185.717 146.892 C 175.089 158.656, 155.661 168.499, 138.199 170.967 L 131.500 171.914 138.325 171.488 C 153.141 170.562, 172.348 161.474, 185.023 149.393 C 189.918 144.727, 191.113 144.084, 195.523 143.744 L 200.500 143.360 194.866 143.180 C 189.496 143.008, 189.068 143.182, 185.717 146.892 M 66 144.378 C 66 144.585, 66.787 145.373, 67.750 146.128 C 69.336 147.371, 69.371 147.336, 68.128 145.750 C 66.821 144.084, 66 143.555, 66 144.378 M 74.488 153.471 C 77.231 155.888, 81.874 159.319, 84.805 161.096 C 91.187 164.963, 106.498 170.937, 110 170.925 C 111.375 170.920, 108.214 169.460, 102.975 167.681 C 91.755 163.869, 83.463 159.415, 76.341 153.375 C 69.611 147.669, 67.997 147.753, 74.488 153.471 M 115.250 171.716 C 116.763 171.945, 119.237 171.945, 120.750 171.716 C 122.263 171.487, 121.025 171.300, 118 171.300 C 114.975 171.300, 113.737 171.487, 115.250 171.716" stroke="none" fill="#f5f9fa" fill-rule="evenodd"/><path d="M 116.500 8.479 C 115.950 8.655, 112.184 9.562, 108.132 10.495 C 93.594 13.839, 80.338 21.397, 69 32.803 L 62.500 39.343 52.162 39.669 C 46.476 39.849, 39.442 40.688, 36.530 41.534 C 24.949 44.901, 14.559 55.282, 10.918 67.125 C 9.103 73.027, 8.915 75.918, 9.191 93.625 L 9.500 113.500 12.696 120.247 C 16.651 128.596, 23.283 135.165, 32 139.367 C 38.078 142.296, 39.400 142.532, 52.348 143 C 65.688 143.482, 66.275 143.594, 68.348 146.057 C 75.716 154.812, 89.301 163.186, 104 168.036 C 112.677 170.898, 114.726 171.184, 127.655 171.335 C 135.860 171.431, 141.575 171.121, 141.251 170.598 C 140.933 170.083, 142.584 169.936, 145.097 170.256 C 147.519 170.565, 148.641 170.586, 147.591 170.305 C 146.323 169.964, 148.416 168.855, 153.821 167.003 C 162.771 163.936, 168.798 160.739, 176.707 154.867 C 181.797 151.087, 183.651 150.137, 182.591 151.853 C 180.985 154.452, 165.484 163.797, 158.092 166.623 C 153.366 168.430, 150.052 169.929, 150.727 169.954 C 153.110 170.043, 165.311 164.956, 170.993 161.504 C 174.158 159.582, 179.841 155.144, 183.623 151.643 L 190.500 145.277 199.500 144.564 C 210.640 143.682, 220.157 141.584, 225.458 138.841 C 231.109 135.919, 240.410 125.098, 243.193 118.211 C 245.354 112.862, 245.500 111.137, 245.500 91 L 245.500 69.500 242.291 62.725 C 236.779 51.088, 225.568 42.362, 213.114 40.015 C 210.151 39.457, 204.301 38.999, 200.114 38.999 L 192.500 38.997 184.458 31.249 C 172.356 19.588, 157.397 11.842, 141.703 9.109 C 135.952 8.107, 118.981 7.683, 116.500 8.479 M 113.500 11.981 C 103.997 13.995, 92.345 18.544, 86.874 22.375 C 84.724 23.882, 84.723 23.897, 86.781 23.742 C 87.925 23.655, 88.601 23.163, 88.282 22.647 C 87.940 22.094, 88.781 21.979, 90.324 22.367 C 92.360 22.877, 92.823 22.702, 92.394 21.585 C 91.989 20.530, 92.396 20.291, 93.921 20.690 C 95.064 20.989, 96 21.686, 96 22.239 C 96 22.891, 96.445 22.876, 97.264 22.196 C 98.568 21.114, 104.903 20.385, 120.500 19.522 C 139.990 18.444, 148.590 17.707, 150.623 16.944 C 151.906 16.462, 153.185 16.585, 153.856 17.256 C 154.467 17.867, 155.299 18.035, 155.704 17.629 C 159.303 14.031, 125.300 9.480, 113.500 11.981 M 156.500 48.362 C 149.721 50.568, 146.481 52.693, 141.396 58.267 C 133.992 66.382, 132.989 70.236, 132.995 90.540 C 133.002 114.031, 131.223 120.323, 121.614 130.786 L 117.678 135.073 166.589 134.786 C 214.552 134.506, 215.578 134.458, 219.500 132.337 C 226.249 128.688, 231.745 123.220, 234.689 117.224 C 237.486 111.529, 237.500 111.399, 237.500 91.500 C 237.500 72.006, 237.434 71.361, 234.887 66 C 231.564 59.004, 225.996 53.436, 219 50.113 C 213.544 47.521, 213.288 47.498, 187 47.280 C 167.439 47.118, 159.453 47.401, 156.500 48.362 M 100 63 C 97.282 65.718, 97.394 70.462, 100.223 72.443 C 103.597 74.807, 109.239 74.439, 111.826 71.686 C 114.648 68.682, 114.573 66.482, 111.545 63.455 C 108.436 60.345, 102.874 60.126, 100 63 M 209 61.689 C 201.137 64.689, 203.027 74, 211.500 74 C 220.556 74, 221.833 63.473, 213 61.636 C 211.625 61.350, 209.825 61.374, 209 61.689 M 30 64.894 C 30 65.434, 31.621 72.766, 33.601 81.188 C 35.582 89.610, 38.205 100.775, 39.430 106 L 41.658 115.500 48.343 115.796 C 53.155 116.009, 55.138 115.729, 55.421 114.796 C 55.637 114.083, 56.855 107.763, 58.126 100.750 C 59.397 93.737, 60.711 88, 61.046 88 C 61.380 88, 62.195 91.037, 62.857 94.750 C 63.518 98.463, 64.766 104.763, 65.630 108.750 L 67.201 116 73.560 116 L 79.920 116 80.965 112.250 C 83.916 101.660, 92 67.804, 92 66.037 C 92 64.182, 91.375 64, 85 64 C 81.150 64, 77.998 64.112, 77.995 64.250 C 77.960 66.188, 73.927 91.407, 73.600 91.733 C 73.353 91.981, 72.860 90.005, 72.505 87.342 C 71.869 82.574, 69.288 69.168, 68.347 65.750 C 67.949 64.304, 66.693 64, 61.108 64 L 54.351 64 51.963 77.500 C 50.650 84.925, 49.318 91, 49.003 91 C 48.689 91, 47.539 85.037, 46.448 77.750 L 44.464 64.500 37.232 64.206 C 32.968 64.033, 30 64.315, 30 64.894 M 151 90.044 L 151 116.088 158.250 115.794 L 165.500 115.500 165.792 107.750 L 166.084 100 179.542 100 L 193 100 193 93.528 L 193 87.056 179.250 86.778 L 165.500 86.500 165.500 81.500 L 165.500 76.500 180.750 76.224 L 196 75.948 196 69.974 L 196 64 173.500 64 L 151 64 151 90.044 M 99 97 L 99 116 105.417 116 L 111.835 116 112.192 98.250 C 112.388 88.487, 112.377 79.938, 112.167 79.250 C 111.914 78.420, 109.637 78, 105.393 78 L 99 78 99 97 M 204.948 78.250 C 204.373 81.043, 203.965 108.278, 204.450 111.513 L 205.123 116 211.561 116 L 218 116 218 97 L 218 78 211.500 78 C 207.925 78, 204.977 78.112, 204.948 78.250 M 186.196 146.298 C 181.711 150.925, 182.191 152.193, 186.750 147.760 C 189.851 144.745, 191.365 144.049, 195.500 143.737 L 200.500 143.360 194.946 143.180 C 189.867 143.015, 189.119 143.282, 186.196 146.298" stroke="none" fill="#3a8dc3" fill-rule="evenodd"/></svg>